<svg xmlns="http://www.w3.org/2000/svg" version="1.1" xmlns:xlink="http://www.w3.org/1999/xlink" width="1000" height="1000"><metadata><rdf:RDF xmlns:rdf="http://www.w3.org/1999/02/22-rdf-syntax-ns#" xmlns:dc="http://purl.org/dc/elements/1.1/"><rdf:Description><dc:creator>RealFaviconGenerator</dc:creator><dc:source>https://realfavicongenerator.net</dc:source></rdf:Description></rdf:RDF></metadata><g clip-path="url(#SvgjsClipPath1155)"><rect width="1000" height="1000" fill="#000000"></rect><g transform="matrix(2.8469750889679717,0,0,2.8469750889679717,142.70462633451956,100)"><svg xmlns="http://www.w3.org/2000/svg" style="background: black;" fill="white" viewBox="-35 -50 251 281" width="251" height="281"><path xmlns="http://www.w3.org/2000/svg" d="M58.357 1.951C53.651 3.94 53.001 6.422 52.985 22.473 52.969 39.125 53 39 47.088 44.72 43.907 46.863 42.72 47 27.307 47 11.23 47 10.861 47.048 8.455 49.455 6.03 51.879 6 52.129 6 70 6 93.77 4.196 92 28.461 92 52.473 92 50.726 93.661 51.169 70.416L51 58C51 52 53 47 60 47L77 47 77 47 84.771 46.5C110.767 46.5 111.63 46.564 116.247 48.838 132.286 56.737 134.564 77.138 120.59 87.746 114.563 92.322 109.11 93.055 81.826 92.963 66.704 92.911 56.589 93.303 53.827 94.046 50.194 95.025 46.55 98.11 31.022 113.355 20.857 123.335 11.807 132.4 10.911 133.5 6 139.088 6 141.106 6 160.95 6 180 6 180 20 180L28.48 180C51 180 51 180 51 163L51 158 51 151C51 137 51 137 88 138 113.668 137 120.529 137.02 125.5 135.571 148.278 128.933 167.079 109.933 173.56 87 176.058 78.158 176.066 60.794 173.574 52.5 170.113 40.978 164.179 31.111 155.533 22.5 146.368 13.373 138.001 8.12 126.5 4.273 118.659 1.65 117.922 1.591 89.5 1.321 73.55 1.169 59.536 1.452 58.357 1.951"></path></svg></g></g><defs><clipPath id="SvgjsClipPath1155"><rect width="1000" height="1000" x="0" y="0" rx="350" ry="350"></rect></clipPath></defs></svg>